<svg width="24" height="21" viewBox="0 0 24 21" fill="none" xmlns="http://www.w3.org/2000/svg">
<g clip-path="url(#clip0_1_138)">
<path d="M11.6692 20.7452C18.1139 20.7452 23.3384 16.1013 23.3384 10.3726C23.3384 4.64398 18.1139 0 11.6692 0C5.22448 0 0 4.64398 0 10.3726C0 16.1013 5.22448 20.7452 11.6692 20.7452Z" fill="#FEE500"/>
<path d="M11.7029 5.00615C8.07238 5.00615 5.14453 7.08815 5.14453 9.61573C5.14453 11.2564 6.36251 12.693 8.18949 13.5133L7.57113 15.5662C7.55947 15.5969 7.55769 15.63 7.56596 15.6615C7.57423 15.6932 7.59224 15.7222 7.61798 15.7452C7.65551 15.7746 7.7038 15.7909 7.75383 15.791C7.79532 15.7881 7.83468 15.7735 7.86625 15.7494L10.5271 14.1546C10.9199 14.2027 11.3158 14.2277 11.7123 14.2295C15.3382 14.2295 18.2706 12.1475 18.2706 9.61573C18.2706 7.08399 15.3287 5.00615 11.7029 5.00615Z" fill="#392020"/>
<path d="M7.43949 8.88704H6.72275C6.63392 8.88933 6.54618 8.8691 6.46978 8.82873C6.43587 8.80984 6.40671 8.78492 6.38414 8.75553C6.36156 8.72616 6.34607 8.69295 6.33862 8.65799C6.33635 8.63583 6.33635 8.61356 6.33862 8.59141C6.33639 8.54994 6.34545 8.50858 6.36502 8.47089C6.3846 8.43319 6.4141 8.40026 6.45104 8.37487C6.53271 8.32229 6.6313 8.29451 6.73212 8.29573H8.8917C8.98124 8.29293 9.06957 8.31475 9.14466 8.35819C9.17938 8.37625 9.20916 8.40095 9.23184 8.43048C9.25452 8.46 9.26955 8.49362 9.27584 8.52893C9.27812 8.5497 9.27812 8.57063 9.27584 8.59141C9.27804 8.63347 9.26901 8.67539 9.24947 8.71375C9.22992 8.75212 9.20043 8.78579 9.1634 8.81206C9.08373 8.86457 8.9861 8.89107 8.88701 8.88704H8.19371V11.0774C8.19652 11.124 8.1884 11.1706 8.16984 11.2144C8.1513 11.2581 8.12274 11.2979 8.08595 11.3313C8.05069 11.3633 8.00831 11.3882 7.9615 11.4047C7.91471 11.4212 7.86455 11.4289 7.81425 11.4271C7.72627 11.4293 7.64016 11.4043 7.57065 11.3563C7.50448 11.3094 7.45957 11.2429 7.44417 11.169C7.43954 11.1386 7.43954 11.1078 7.44417 11.0774L7.43949 8.88704Z" fill="#FEE500"/>
<path d="M9.48331 8.458C9.50392 8.38948 9.5523 8.33013 9.61916 8.29142C9.6904 8.25553 9.77158 8.23821 9.85339 8.24146H10.0314C10.1182 8.23869 10.2042 8.25743 10.2797 8.29559C10.3597 8.34342 10.4166 8.41626 10.439 8.49962L11.3759 10.8523C11.4002 10.9137 11.4205 10.9763 11.4368 11.0397C11.4384 11.0661 11.4384 11.0924 11.4368 11.1188C11.4384 11.1594 11.43 11.1998 11.4121 11.2372C11.3943 11.2746 11.3676 11.3081 11.3337 11.3354C11.3009 11.3652 11.2615 11.3889 11.218 11.4047C11.1744 11.4203 11.1277 11.428 11.0807 11.427C11.0085 11.4334 10.9359 11.4179 10.8747 11.3832C10.8136 11.3484 10.7673 11.2964 10.7435 11.2355L10.5467 10.7233H9.31467L9.11791 11.2355C9.09464 11.2976 9.04784 11.3507 8.98548 11.3856C8.92313 11.4205 8.84908 11.4351 8.77595 11.427C8.69672 11.4288 8.61914 11.4068 8.55577 11.3645C8.49403 11.3208 8.45237 11.2587 8.43865 11.1896C8.43616 11.1661 8.43616 11.1423 8.43865 11.1188C8.43061 11.0775 8.43061 11.0353 8.43865 10.9939C8.43865 10.9482 8.47145 10.8982 8.49018 10.8523L9.48331 8.458ZM9.95177 9.00352L9.50673 10.2527H10.3921L9.95177 9.00352Z" fill="#FEE500"/>
<path d="M11.5434 8.5914C11.5386 8.49794 11.5757 8.40663 11.6464 8.33739C11.6824 8.30513 11.7256 8.27993 11.7732 8.26344C11.8208 8.24693 11.8718 8.23948 11.9228 8.24157C12.0106 8.24067 12.0962 8.26557 12.1665 8.31239C12.2315 8.36123 12.2748 8.42917 12.2882 8.50392C12.2928 8.53292 12.2928 8.56239 12.2882 8.5914V10.7817H13.5765C13.6657 10.7807 13.7536 10.8022 13.8294 10.8441C13.8635 10.8628 13.8928 10.8877 13.9154 10.9171C13.9381 10.9465 13.9535 10.9798 13.9606 11.0149C13.9606 11.0149 13.9606 11.0565 13.9606 11.0773C13.9628 11.1188 13.9537 11.1601 13.9342 11.1977C13.9146 11.2355 13.8851 11.2685 13.8482 11.2939C13.7665 11.3464 13.6679 11.3742 13.5671 11.3729H11.9837C11.8829 11.3787 11.7827 11.3554 11.6979 11.3063C11.6222 11.256 11.5718 11.1813 11.5574 11.0982C11.554 11.0524 11.554 11.0065 11.5574 10.9607L11.5434 8.5914Z" fill="#FEE500"/>
<path d="M14.0452 8.59152C14.0424 8.49834 14.0792 8.40766 14.1482 8.33752C14.2185 8.28081 14.3086 8.24732 14.4033 8.24276C14.498 8.23822 14.5916 8.26285 14.6682 8.31251C14.7347 8.36093 14.7797 8.42884 14.7947 8.50404C14.7971 8.53315 14.7971 8.5624 14.7947 8.59152V9.61169L15.98 8.39577C16.0256 8.35429 16.0741 8.31539 16.1251 8.27921C16.1733 8.25375 16.2285 8.24073 16.2844 8.2417C16.3663 8.2413 16.4464 8.2631 16.5139 8.30417C16.5458 8.32323 16.573 8.34784 16.594 8.37645C16.6149 8.40507 16.6291 8.43713 16.6358 8.47074C16.6376 8.47899 16.6376 8.4875 16.6358 8.49575C16.6336 8.50537 16.6336 8.51527 16.6358 8.52488C16.6357 8.56869 16.6227 8.61175 16.5983 8.64981C16.5735 8.69013 16.5436 8.7278 16.5093 8.7622L15.7316 9.52009L16.6686 10.8109V10.8526C16.7172 10.9122 16.7551 10.9783 16.781 11.0483V11.0691C16.7864 11.1174 16.7786 11.166 16.7582 11.2111C16.7378 11.256 16.7054 11.2959 16.6639 11.3272C16.5857 11.3798 16.4901 11.4076 16.3922 11.4064C16.3271 11.4088 16.2625 11.3958 16.2048 11.3689C16.1424 11.3317 16.0911 11.2817 16.0549 11.2232L15.1835 9.97396L14.7666 10.3612V11.0566C14.7694 11.1498 14.7326 11.2404 14.6636 11.3106C14.6266 11.3428 14.5826 11.3679 14.5341 11.3844C14.4858 11.4008 14.4343 11.4084 14.3826 11.4064C14.2961 11.408 14.2117 11.383 14.1436 11.3356C14.0774 11.2888 14.0325 11.2222 14.0171 11.1482C14.0125 11.1178 14.0125 11.087 14.0171 11.0566L14.0452 8.59152Z" fill="#FEE500"/>
</g>
<defs>
<clipPath id="clip0_1_138">
<rect width="23.3384" height="20.7452" fill="white"/>
</clipPath>
</defs>
</svg>
